<mxfile host="app.diagrams.net" modified="2021-03-20T17:22:16.195Z" agent="5.0 (Windows NT 10.0; Win64; x64) AppleWebKit/537.36 (KHTML, like Gecko) Chrome/89.0.4389.82 Safari/537.36" etag="5cDNoSzCH0tXfHt6t2Yv" version="14.4.8" type="github">
  <diagram id="wLmYwv8RiDki7RKgNCyT" name="第 1 页">
    <mxGraphModel dx="1422" dy="706" grid="1" gridSize="10" guides="1" tooltips="1" connect="1" arrows="1" fold="1" page="1" pageScale="1" pageWidth="827" pageHeight="1169" math="0" shadow="0">
      <root>
        <mxCell id="0" />
        <mxCell id="1" parent="0" />
        <mxCell id="G8alca-e6VUIbrc9lNpL-111" value="" style="group" vertex="1" connectable="0" parent="1">
          <mxGeometry x="110" y="80" width="550" height="283" as="geometry" />
        </mxCell>
        <mxCell id="G8alca-e6VUIbrc9lNpL-112" value="" style="group" vertex="1" connectable="0" parent="G8alca-e6VUIbrc9lNpL-111">
          <mxGeometry x="370" width="120" height="164" as="geometry" />
        </mxCell>
        <mxCell id="G8alca-e6VUIbrc9lNpL-113" value="my_data_list" style="swimlane;fontStyle=0;childLayout=stackLayout;horizontal=1;startSize=26;fillColor=#d5e8d4;horizontalStack=0;resizeParent=1;resizeParentMax=0;resizeLast=0;collapsible=1;marginBottom=0;fontSize=14;strokeColor=#82b366;" vertex="1" parent="G8alca-e6VUIbrc9lNpL-112">
          <mxGeometry y="60" width="120" height="104" as="geometry" />
        </mxCell>
        <mxCell id="G8alca-e6VUIbrc9lNpL-114" value="val: 1" style="text;strokeColor=#314354;fillColor=#647687;align=left;verticalAlign=top;spacingLeft=4;spacingRight=4;overflow=hidden;rotatable=0;points=[[0,0.5],[1,0.5]];portConstraint=eastwest;fontColor=#ffffff;fontSize=14;" vertex="1" parent="G8alca-e6VUIbrc9lNpL-113">
          <mxGeometry y="26" width="120" height="26" as="geometry" />
        </mxCell>
        <mxCell id="G8alca-e6VUIbrc9lNpL-115" value="list: next" style="text;strokeColor=#314354;fillColor=#647687;align=left;verticalAlign=top;spacingLeft=4;spacingRight=4;overflow=hidden;rotatable=0;points=[[0,0.5],[1,0.5]];portConstraint=eastwest;fontColor=#ffffff;fontSize=14;" vertex="1" parent="G8alca-e6VUIbrc9lNpL-113">
          <mxGeometry y="52" width="120" height="26" as="geometry" />
        </mxCell>
        <mxCell id="G8alca-e6VUIbrc9lNpL-116" value="list: prev" style="text;strokeColor=#314354;fillColor=#647687;align=left;verticalAlign=top;spacingLeft=4;spacingRight=4;overflow=hidden;rotatable=0;points=[[0,0.5],[1,0.5]];portConstraint=eastwest;fontColor=#ffffff;fontSize=14;" vertex="1" parent="G8alca-e6VUIbrc9lNpL-113">
          <mxGeometry y="78" width="120" height="26" as="geometry" />
        </mxCell>
        <mxCell id="G8alca-e6VUIbrc9lNpL-117" value="节点1" style="text;html=1;align=center;verticalAlign=middle;resizable=0;points=[];autosize=1;fontSize=14;" vertex="1" parent="G8alca-e6VUIbrc9lNpL-112">
          <mxGeometry x="35" width="50" height="20" as="geometry" />
        </mxCell>
        <mxCell id="G8alca-e6VUIbrc9lNpL-118" value="list_head" style="swimlane;fontStyle=0;childLayout=stackLayout;horizontal=1;startSize=26;fillColor=#e1d5e7;horizontalStack=0;resizeParent=1;resizeParentMax=0;resizeLast=0;collapsible=1;marginBottom=0;fontSize=14;strokeColor=#9673a6;" vertex="1" parent="G8alca-e6VUIbrc9lNpL-111">
          <mxGeometry x="60" y="86" width="140" height="78" as="geometry" />
        </mxCell>
        <mxCell id="G8alca-e6VUIbrc9lNpL-119" value="next" style="text;strokeColor=#314354;fillColor=#647687;align=left;verticalAlign=top;spacingLeft=4;spacingRight=4;overflow=hidden;rotatable=0;points=[[0,0.5],[1,0.5]];portConstraint=eastwest;fontColor=#ffffff;fontSize=14;" vertex="1" parent="G8alca-e6VUIbrc9lNpL-118">
          <mxGeometry y="26" width="140" height="26" as="geometry" />
        </mxCell>
        <mxCell id="G8alca-e6VUIbrc9lNpL-120" value="prev" style="text;strokeColor=#314354;fillColor=#647687;align=left;verticalAlign=top;spacingLeft=4;spacingRight=4;overflow=hidden;rotatable=0;points=[[0,0.5],[1,0.5]];portConstraint=eastwest;fontColor=#ffffff;fontSize=14;" vertex="1" parent="G8alca-e6VUIbrc9lNpL-118">
          <mxGeometry y="52" width="140" height="26" as="geometry" />
        </mxCell>
        <mxCell id="G8alca-e6VUIbrc9lNpL-121" value="listHead" style="text;html=1;align=center;verticalAlign=middle;resizable=0;points=[];autosize=1;fontSize=14;" vertex="1" parent="G8alca-e6VUIbrc9lNpL-111">
          <mxGeometry x="95" y="40" width="70" height="20" as="geometry" />
        </mxCell>
        <mxCell id="G8alca-e6VUIbrc9lNpL-122" style="edgeStyle=orthogonalEdgeStyle;curved=1;rounded=0;orthogonalLoop=1;jettySize=auto;html=1;exitX=1;exitY=0.5;exitDx=0;exitDy=0;entryX=-0.008;entryY=0.115;entryDx=0;entryDy=0;entryPerimeter=0;fillColor=#6a00ff;strokeColor=#3700CC;" edge="1" parent="G8alca-e6VUIbrc9lNpL-111" source="G8alca-e6VUIbrc9lNpL-120" target="G8alca-e6VUIbrc9lNpL-113">
          <mxGeometry relative="1" as="geometry" />
        </mxCell>
        <mxCell id="G8alca-e6VUIbrc9lNpL-123" value="Prev" style="edgeLabel;html=1;align=center;verticalAlign=middle;resizable=0;points=[];" vertex="1" connectable="0" parent="G8alca-e6VUIbrc9lNpL-122">
          <mxGeometry x="-0.1614" y="5" relative="1" as="geometry">
            <mxPoint as="offset" />
          </mxGeometry>
        </mxCell>
        <mxCell id="G8alca-e6VUIbrc9lNpL-125" value="Next" style="edgeStyle=orthogonalEdgeStyle;curved=1;rounded=0;orthogonalLoop=1;jettySize=auto;html=1;exitX=1;exitY=0.5;exitDx=0;exitDy=0;entryX=0;entryY=0.25;entryDx=0;entryDy=0;" edge="1" parent="G8alca-e6VUIbrc9lNpL-111" source="G8alca-e6VUIbrc9lNpL-115" target="G8alca-e6VUIbrc9lNpL-118">
          <mxGeometry relative="1" as="geometry">
            <Array as="points">
              <mxPoint x="550" y="125" />
              <mxPoint x="550" y="223" />
              <mxPoint x="30" y="223" />
              <mxPoint x="30" y="106" />
            </Array>
          </mxGeometry>
        </mxCell>
        <mxCell id="G8alca-e6VUIbrc9lNpL-127" style="edgeStyle=orthogonalEdgeStyle;curved=1;rounded=0;orthogonalLoop=1;jettySize=auto;html=1;exitX=1;exitY=0.5;exitDx=0;exitDy=0;entryX=0;entryY=0;entryDx=0;entryDy=0;fillColor=#6a00ff;strokeColor=#3700CC;" edge="1" parent="G8alca-e6VUIbrc9lNpL-111" source="G8alca-e6VUIbrc9lNpL-116" target="G8alca-e6VUIbrc9lNpL-118">
          <mxGeometry relative="1" as="geometry">
            <Array as="points">
              <mxPoint x="510" y="151" />
              <mxPoint x="510" y="283" />
              <mxPoint y="283" />
              <mxPoint y="86" />
            </Array>
          </mxGeometry>
        </mxCell>
        <mxCell id="G8alca-e6VUIbrc9lNpL-128" value="Prev" style="edgeLabel;html=1;align=center;verticalAlign=middle;resizable=0;points=[];" vertex="1" connectable="0" parent="G8alca-e6VUIbrc9lNpL-127">
          <mxGeometry x="-0.1578" y="-1" relative="1" as="geometry">
            <mxPoint as="offset" />
          </mxGeometry>
        </mxCell>
        <mxCell id="G8alca-e6VUIbrc9lNpL-130" style="edgeStyle=orthogonalEdgeStyle;curved=1;rounded=0;orthogonalLoop=1;jettySize=auto;html=1;exitX=1;exitY=0.5;exitDx=0;exitDy=0;entryX=0.25;entryY=0;entryDx=0;entryDy=0;" edge="1" parent="G8alca-e6VUIbrc9lNpL-111" source="G8alca-e6VUIbrc9lNpL-119" target="G8alca-e6VUIbrc9lNpL-113">
          <mxGeometry relative="1" as="geometry">
            <Array as="points">
              <mxPoint x="200" y="40" />
              <mxPoint x="400" y="40" />
            </Array>
          </mxGeometry>
        </mxCell>
        <mxCell id="G8alca-e6VUIbrc9lNpL-131" value="Next" style="edgeLabel;html=1;align=center;verticalAlign=middle;resizable=0;points=[];" vertex="1" connectable="0" parent="G8alca-e6VUIbrc9lNpL-130">
          <mxGeometry x="0.1082" y="-2" relative="1" as="geometry">
            <mxPoint as="offset" />
          </mxGeometry>
        </mxCell>
        <mxCell id="G8alca-e6VUIbrc9lNpL-181" value="" style="verticalLabelPosition=bottom;verticalAlign=top;html=1;shape=mxgraph.basic.x;strokeColor=#A50040;fontColor=#ffffff;fillColor=#FF3333;" vertex="1" parent="G8alca-e6VUIbrc9lNpL-111">
          <mxGeometry x="330" y="190" width="20" height="20" as="geometry" />
        </mxCell>
        <mxCell id="G8alca-e6VUIbrc9lNpL-183" value="" style="verticalLabelPosition=bottom;verticalAlign=top;html=1;shape=mxgraph.basic.x;strokeColor=#A50040;fontColor=#ffffff;fillColor=#FF3333;" vertex="1" parent="G8alca-e6VUIbrc9lNpL-111">
          <mxGeometry x="240" y="50" width="20" height="20" as="geometry" />
        </mxCell>
        <mxCell id="G8alca-e6VUIbrc9lNpL-178" value="" style="verticalLabelPosition=bottom;verticalAlign=top;html=1;shape=mxgraph.basic.x;strokeColor=#A50040;fontColor=#ffffff;fillColor=#FF3333;" vertex="1" parent="1">
          <mxGeometry x="440" y="370" width="20" height="20" as="geometry" />
        </mxCell>
        <mxCell id="G8alca-e6VUIbrc9lNpL-199" value="" style="group" vertex="1" connectable="0" parent="1">
          <mxGeometry x="89" y="500" width="649" height="284" as="geometry" />
        </mxCell>
        <mxCell id="G8alca-e6VUIbrc9lNpL-155" value="" style="group" vertex="1" connectable="0" parent="G8alca-e6VUIbrc9lNpL-199">
          <mxGeometry x="233" y="120" width="120" height="164" as="geometry" />
        </mxCell>
        <mxCell id="G8alca-e6VUIbrc9lNpL-156" value="my_data_list" style="swimlane;fontStyle=0;childLayout=stackLayout;horizontal=1;startSize=26;fillColor=#d5e8d4;horizontalStack=0;resizeParent=1;resizeParentMax=0;resizeLast=0;collapsible=1;marginBottom=0;fontSize=14;strokeColor=#82b366;" vertex="1" parent="G8alca-e6VUIbrc9lNpL-155">
          <mxGeometry y="60" width="120" height="104" as="geometry" />
        </mxCell>
        <mxCell id="G8alca-e6VUIbrc9lNpL-157" value="val: 2" style="text;strokeColor=#314354;fillColor=#647687;align=left;verticalAlign=top;spacingLeft=4;spacingRight=4;overflow=hidden;rotatable=0;points=[[0,0.5],[1,0.5]];portConstraint=eastwest;fontColor=#ffffff;fontSize=14;" vertex="1" parent="G8alca-e6VUIbrc9lNpL-156">
          <mxGeometry y="26" width="120" height="26" as="geometry" />
        </mxCell>
        <mxCell id="G8alca-e6VUIbrc9lNpL-158" value="list: next" style="text;strokeColor=#314354;fillColor=#647687;align=left;verticalAlign=top;spacingLeft=4;spacingRight=4;overflow=hidden;rotatable=0;points=[[0,0.5],[1,0.5]];portConstraint=eastwest;fontColor=#ffffff;fontSize=14;" vertex="1" parent="G8alca-e6VUIbrc9lNpL-156">
          <mxGeometry y="52" width="120" height="26" as="geometry" />
        </mxCell>
        <mxCell id="G8alca-e6VUIbrc9lNpL-159" value="list: prev" style="text;strokeColor=#314354;fillColor=#647687;align=left;verticalAlign=top;spacingLeft=4;spacingRight=4;overflow=hidden;rotatable=0;points=[[0,0.5],[1,0.5]];portConstraint=eastwest;fontColor=#ffffff;fontSize=14;" vertex="1" parent="G8alca-e6VUIbrc9lNpL-156">
          <mxGeometry y="78" width="120" height="26" as="geometry" />
        </mxCell>
        <mxCell id="G8alca-e6VUIbrc9lNpL-160" value="节点2" style="text;html=1;align=center;verticalAlign=middle;resizable=0;points=[];autosize=1;fontSize=14;" vertex="1" parent="G8alca-e6VUIbrc9lNpL-155">
          <mxGeometry x="35" width="50" height="20" as="geometry" />
        </mxCell>
        <mxCell id="G8alca-e6VUIbrc9lNpL-161" value="list_head" style="swimlane;fontStyle=0;childLayout=stackLayout;horizontal=1;startSize=26;fillColor=#e1d5e7;horizontalStack=0;resizeParent=1;resizeParentMax=0;resizeLast=0;collapsible=1;marginBottom=0;fontSize=14;strokeColor=#9673a6;" vertex="1" parent="G8alca-e6VUIbrc9lNpL-199">
          <mxGeometry y="101" width="120" height="78" as="geometry" />
        </mxCell>
        <mxCell id="G8alca-e6VUIbrc9lNpL-162" value="next" style="text;strokeColor=#314354;fillColor=#647687;align=left;verticalAlign=top;spacingLeft=4;spacingRight=4;overflow=hidden;rotatable=0;points=[[0,0.5],[1,0.5]];portConstraint=eastwest;fontColor=#ffffff;fontSize=14;" vertex="1" parent="G8alca-e6VUIbrc9lNpL-161">
          <mxGeometry y="26" width="120" height="26" as="geometry" />
        </mxCell>
        <mxCell id="G8alca-e6VUIbrc9lNpL-163" value="prev" style="text;strokeColor=#314354;fillColor=#647687;align=left;verticalAlign=top;spacingLeft=4;spacingRight=4;overflow=hidden;rotatable=0;points=[[0,0.5],[1,0.5]];portConstraint=eastwest;fontColor=#ffffff;fontSize=14;" vertex="1" parent="G8alca-e6VUIbrc9lNpL-161">
          <mxGeometry y="52" width="120" height="26" as="geometry" />
        </mxCell>
        <mxCell id="G8alca-e6VUIbrc9lNpL-164" value="listHead" style="text;html=1;align=center;verticalAlign=middle;resizable=0;points=[];autosize=1;fontSize=14;" vertex="1" parent="G8alca-e6VUIbrc9lNpL-199">
          <mxGeometry x="24" y="50" width="70" height="20" as="geometry" />
        </mxCell>
        <mxCell id="G8alca-e6VUIbrc9lNpL-172" value="" style="group" vertex="1" connectable="0" parent="G8alca-e6VUIbrc9lNpL-199">
          <mxGeometry x="479" y="30" width="120" height="164" as="geometry" />
        </mxCell>
        <mxCell id="G8alca-e6VUIbrc9lNpL-173" value="my_data_list" style="swimlane;fontStyle=0;childLayout=stackLayout;horizontal=1;startSize=26;fillColor=#d5e8d4;horizontalStack=0;resizeParent=1;resizeParentMax=0;resizeLast=0;collapsible=1;marginBottom=0;fontSize=14;strokeColor=#82b366;" vertex="1" parent="G8alca-e6VUIbrc9lNpL-172">
          <mxGeometry y="60" width="120" height="104" as="geometry" />
        </mxCell>
        <mxCell id="G8alca-e6VUIbrc9lNpL-174" value="val: 1" style="text;strokeColor=#314354;fillColor=#647687;align=left;verticalAlign=top;spacingLeft=4;spacingRight=4;overflow=hidden;rotatable=0;points=[[0,0.5],[1,0.5]];portConstraint=eastwest;fontColor=#ffffff;fontSize=14;" vertex="1" parent="G8alca-e6VUIbrc9lNpL-173">
          <mxGeometry y="26" width="120" height="26" as="geometry" />
        </mxCell>
        <mxCell id="G8alca-e6VUIbrc9lNpL-175" value="list: next" style="text;strokeColor=#314354;fillColor=#647687;align=left;verticalAlign=top;spacingLeft=4;spacingRight=4;overflow=hidden;rotatable=0;points=[[0,0.5],[1,0.5]];portConstraint=eastwest;fontColor=#ffffff;fontSize=14;" vertex="1" parent="G8alca-e6VUIbrc9lNpL-173">
          <mxGeometry y="52" width="120" height="26" as="geometry" />
        </mxCell>
        <mxCell id="G8alca-e6VUIbrc9lNpL-176" value="list: prev" style="text;strokeColor=#314354;fillColor=#647687;align=left;verticalAlign=top;spacingLeft=4;spacingRight=4;overflow=hidden;rotatable=0;points=[[0,0.5],[1,0.5]];portConstraint=eastwest;fontColor=#ffffff;fontSize=14;" vertex="1" parent="G8alca-e6VUIbrc9lNpL-173">
          <mxGeometry y="78" width="120" height="26" as="geometry" />
        </mxCell>
        <mxCell id="G8alca-e6VUIbrc9lNpL-177" value="节点1" style="text;html=1;align=center;verticalAlign=middle;resizable=0;points=[];autosize=1;fontSize=14;" vertex="1" parent="G8alca-e6VUIbrc9lNpL-172">
          <mxGeometry x="35" width="50" height="20" as="geometry" />
        </mxCell>
        <mxCell id="G8alca-e6VUIbrc9lNpL-186" value="Prev" style="edgeStyle=orthogonalEdgeStyle;curved=1;rounded=0;orthogonalLoop=1;jettySize=auto;html=1;exitX=0;exitY=0.5;exitDx=0;exitDy=0;entryX=1;entryY=0;entryDx=0;entryDy=0;fillColor=#6a00ff;strokeColor=#3700CC;" edge="1" parent="G8alca-e6VUIbrc9lNpL-199" source="G8alca-e6VUIbrc9lNpL-176" target="G8alca-e6VUIbrc9lNpL-156">
          <mxGeometry relative="1" as="geometry" />
        </mxCell>
        <mxCell id="G8alca-e6VUIbrc9lNpL-187" style="edgeStyle=orthogonalEdgeStyle;curved=1;rounded=0;orthogonalLoop=1;jettySize=auto;html=1;exitX=1;exitY=0.5;exitDx=0;exitDy=0;entryX=1.008;entryY=0.115;entryDx=0;entryDy=0;entryPerimeter=0;" edge="1" parent="G8alca-e6VUIbrc9lNpL-199" source="G8alca-e6VUIbrc9lNpL-158" target="G8alca-e6VUIbrc9lNpL-173">
          <mxGeometry relative="1" as="geometry">
            <Array as="points">
              <mxPoint x="353" y="260" />
              <mxPoint x="649" y="260" />
              <mxPoint x="649" y="102" />
            </Array>
          </mxGeometry>
        </mxCell>
        <mxCell id="G8alca-e6VUIbrc9lNpL-188" value="Next" style="edgeLabel;html=1;align=center;verticalAlign=middle;resizable=0;points=[];" vertex="1" connectable="0" parent="G8alca-e6VUIbrc9lNpL-187">
          <mxGeometry x="-0.1082" y="4" relative="1" as="geometry">
            <mxPoint as="offset" />
          </mxGeometry>
        </mxCell>
        <mxCell id="G8alca-e6VUIbrc9lNpL-189" value="(1)" style="text;html=1;align=center;verticalAlign=middle;resizable=0;points=[];autosize=1;" vertex="1" parent="G8alca-e6VUIbrc9lNpL-199">
          <mxGeometry x="394" y="120" width="30" height="20" as="geometry" />
        </mxCell>
        <mxCell id="G8alca-e6VUIbrc9lNpL-190" value="(2)" style="text;html=1;align=center;verticalAlign=middle;resizable=0;points=[];autosize=1;" vertex="1" parent="G8alca-e6VUIbrc9lNpL-199">
          <mxGeometry x="414" y="240" width="30" height="20" as="geometry" />
        </mxCell>
        <mxCell id="G8alca-e6VUIbrc9lNpL-191" style="edgeStyle=orthogonalEdgeStyle;curved=1;rounded=0;orthogonalLoop=1;jettySize=auto;html=1;exitX=0;exitY=0.5;exitDx=0;exitDy=0;entryX=0;entryY=0.25;entryDx=0;entryDy=0;fillColor=#6a00ff;strokeColor=#3700CC;" edge="1" parent="G8alca-e6VUIbrc9lNpL-199" source="G8alca-e6VUIbrc9lNpL-159" target="G8alca-e6VUIbrc9lNpL-161">
          <mxGeometry relative="1" as="geometry" />
        </mxCell>
        <mxCell id="G8alca-e6VUIbrc9lNpL-193" value="Prev" style="edgeLabel;html=1;align=center;verticalAlign=middle;resizable=0;points=[];" vertex="1" connectable="0" parent="G8alca-e6VUIbrc9lNpL-191">
          <mxGeometry x="-0.3436" y="-11" relative="1" as="geometry">
            <mxPoint as="offset" />
          </mxGeometry>
        </mxCell>
        <mxCell id="G8alca-e6VUIbrc9lNpL-192" value="Next" style="edgeStyle=orthogonalEdgeStyle;curved=1;rounded=0;orthogonalLoop=1;jettySize=auto;html=1;exitX=1;exitY=0.5;exitDx=0;exitDy=0;entryX=0.25;entryY=0;entryDx=0;entryDy=0;" edge="1" parent="G8alca-e6VUIbrc9lNpL-199" source="G8alca-e6VUIbrc9lNpL-162" target="G8alca-e6VUIbrc9lNpL-156">
          <mxGeometry relative="1" as="geometry" />
        </mxCell>
        <mxCell id="G8alca-e6VUIbrc9lNpL-194" value="(3)" style="text;html=1;align=center;verticalAlign=middle;resizable=0;points=[];autosize=1;" vertex="1" parent="G8alca-e6VUIbrc9lNpL-199">
          <mxGeometry x="94" y="230" width="30" height="20" as="geometry" />
        </mxCell>
        <mxCell id="G8alca-e6VUIbrc9lNpL-195" value="(4)" style="text;html=1;align=center;verticalAlign=middle;resizable=0;points=[];autosize=1;" vertex="1" parent="G8alca-e6VUIbrc9lNpL-199">
          <mxGeometry x="174" y="110" width="30" height="20" as="geometry" />
        </mxCell>
        <mxCell id="G8alca-e6VUIbrc9lNpL-196" style="edgeStyle=orthogonalEdgeStyle;curved=1;rounded=0;orthogonalLoop=1;jettySize=auto;html=1;exitX=1;exitY=0.5;exitDx=0;exitDy=0;entryX=0.5;entryY=0;entryDx=0;entryDy=0;" edge="1" parent="G8alca-e6VUIbrc9lNpL-199" source="G8alca-e6VUIbrc9lNpL-163" target="G8alca-e6VUIbrc9lNpL-173">
          <mxGeometry relative="1" as="geometry">
            <Array as="points">
              <mxPoint x="159" y="166" />
              <mxPoint x="159" y="40" />
              <mxPoint x="539" y="40" />
            </Array>
          </mxGeometry>
        </mxCell>
        <mxCell id="G8alca-e6VUIbrc9lNpL-197" value="Prev" style="edgeLabel;html=1;align=center;verticalAlign=middle;resizable=0;points=[];" vertex="1" connectable="0" parent="G8alca-e6VUIbrc9lNpL-196">
          <mxGeometry x="0.0655" y="-2" relative="1" as="geometry">
            <mxPoint as="offset" />
          </mxGeometry>
        </mxCell>
        <mxCell id="G8alca-e6VUIbrc9lNpL-198" value="未动" style="text;html=1;align=center;verticalAlign=middle;resizable=0;points=[];autosize=1;" vertex="1" parent="G8alca-e6VUIbrc9lNpL-199">
          <mxGeometry x="299" width="40" height="20" as="geometry" />
        </mxCell>
        <mxCell id="G8alca-e6VUIbrc9lNpL-200" value="" style="html=1;shadow=0;dashed=0;align=center;verticalAlign=middle;shape=mxgraph.arrows2.arrow;dy=0.6;dx=40;direction=south;notch=0;fillColor=#6d8764;strokeColor=#3A5431;fontColor=#ffffff;" vertex="1" parent="1">
          <mxGeometry x="360" y="400" width="50" height="80" as="geometry" />
        </mxCell>
      </root>
    </mxGraphModel>
  </diagram>
</mxfile>
